<mxfile host="app.diagrams.net" modified="2022-11-17T11:27:16.627Z" agent="5.0 (Macintosh; Intel Mac OS X 10_15_7) AppleWebKit/537.36 (KHTML, like Gecko) Chrome/107.0.0.0 Safari/537.36" etag="X58B3IuisFwKqQqRDBPd" version="20.5.3" type="github">
  <diagram name="Page-1" id="9361dd3d-8414-5efd-6122-117bd74ce7a7">
    <mxGraphModel dx="1541" dy="1435" grid="1" gridSize="10" guides="1" tooltips="1" connect="1" arrows="1" fold="1" page="0" pageScale="1.5" pageWidth="826" pageHeight="1169" background="none" math="0" shadow="0">
      <root>
        <mxCell id="0" />
        <mxCell id="1" parent="0" />
        <mxCell id="AvaifdtCPCKWoQqbtJCX-4" value="" style="edgeStyle=orthogonalEdgeStyle;rounded=0;orthogonalLoop=1;jettySize=auto;html=1;" parent="1" source="AvaifdtCPCKWoQqbtJCX-2" target="AvaifdtCPCKWoQqbtJCX-3" edge="1">
          <mxGeometry relative="1" as="geometry" />
        </mxCell>
        <mxCell id="AvaifdtCPCKWoQqbtJCX-2" value="&lt;span style=&quot;text-align: left;&quot;&gt;UserService.class&lt;/span&gt;" style="rounded=0;whiteSpace=wrap;html=1;" parent="1" vertex="1">
          <mxGeometry x="-250" y="120" width="120" height="60" as="geometry" />
        </mxCell>
        <mxCell id="AvaifdtCPCKWoQqbtJCX-6" value="" style="edgeStyle=orthogonalEdgeStyle;rounded=0;orthogonalLoop=1;jettySize=auto;html=1;" parent="1" source="AvaifdtCPCKWoQqbtJCX-3" target="AvaifdtCPCKWoQqbtJCX-5" edge="1">
          <mxGeometry relative="1" as="geometry" />
        </mxCell>
        <mxCell id="sAC0p9OgKvjewPbH0bgV-3" value="" style="edgeStyle=orthogonalEdgeStyle;rounded=0;orthogonalLoop=1;jettySize=auto;html=1;" edge="1" parent="1" source="AvaifdtCPCKWoQqbtJCX-3" target="sAC0p9OgKvjewPbH0bgV-2">
          <mxGeometry relative="1" as="geometry" />
        </mxCell>
        <mxCell id="AvaifdtCPCKWoQqbtJCX-3" value="&lt;span style=&quot;text-align: left;&quot;&gt;無參建構子&lt;br&gt;（無參構造方法）&lt;/span&gt;" style="rounded=0;whiteSpace=wrap;html=1;" parent="1" vertex="1">
          <mxGeometry x="-110" y="120" width="120" height="60" as="geometry" />
        </mxCell>
        <mxCell id="AvaifdtCPCKWoQqbtJCX-8" value="" style="edgeStyle=orthogonalEdgeStyle;rounded=0;orthogonalLoop=1;jettySize=auto;html=1;" parent="1" source="AvaifdtCPCKWoQqbtJCX-5" target="AvaifdtCPCKWoQqbtJCX-7" edge="1">
          <mxGeometry relative="1" as="geometry" />
        </mxCell>
        <mxCell id="AvaifdtCPCKWoQqbtJCX-5" value="&lt;span style=&quot;text-align: left;&quot;&gt;物件&lt;br&gt;(對象)&lt;/span&gt;" style="rounded=0;whiteSpace=wrap;html=1;" parent="1" vertex="1">
          <mxGeometry x="30" y="120" width="120" height="60" as="geometry" />
        </mxCell>
        <mxCell id="AvaifdtCPCKWoQqbtJCX-10" value="" style="edgeStyle=orthogonalEdgeStyle;rounded=0;orthogonalLoop=1;jettySize=auto;html=1;" parent="1" source="AvaifdtCPCKWoQqbtJCX-7" target="AvaifdtCPCKWoQqbtJCX-9" edge="1">
          <mxGeometry relative="1" as="geometry" />
        </mxCell>
        <mxCell id="sAC0p9OgKvjewPbH0bgV-11" style="edgeStyle=orthogonalEdgeStyle;rounded=0;orthogonalLoop=1;jettySize=auto;html=1;exitX=0.5;exitY=0;exitDx=0;exitDy=0;entryX=0;entryY=0.5;entryDx=0;entryDy=0;" edge="1" parent="1" source="AvaifdtCPCKWoQqbtJCX-7" target="sAC0p9OgKvjewPbH0bgV-10">
          <mxGeometry relative="1" as="geometry" />
        </mxCell>
        <mxCell id="AvaifdtCPCKWoQqbtJCX-7" value="&lt;span style=&quot;text-align: left;&quot;&gt;依賴注入&lt;br&gt;(屬性賦值)&lt;/span&gt;" style="rounded=0;whiteSpace=wrap;html=1;" parent="1" vertex="1">
          <mxGeometry x="170" y="120" width="120" height="60" as="geometry" />
        </mxCell>
        <mxCell id="AvaifdtCPCKWoQqbtJCX-12" value="" style="edgeStyle=orthogonalEdgeStyle;rounded=0;orthogonalLoop=1;jettySize=auto;html=1;" parent="1" source="AvaifdtCPCKWoQqbtJCX-9" target="AvaifdtCPCKWoQqbtJCX-11" edge="1">
          <mxGeometry relative="1" as="geometry" />
        </mxCell>
        <mxCell id="sAC0p9OgKvjewPbH0bgV-9" style="edgeStyle=orthogonalEdgeStyle;rounded=0;orthogonalLoop=1;jettySize=auto;html=1;entryX=0;entryY=0.5;entryDx=0;entryDy=0;" edge="1" parent="1" source="AvaifdtCPCKWoQqbtJCX-9" target="sAC0p9OgKvjewPbH0bgV-7">
          <mxGeometry relative="1" as="geometry">
            <mxPoint x="560" y="360" as="targetPoint" />
          </mxGeometry>
        </mxCell>
        <mxCell id="AvaifdtCPCKWoQqbtJCX-9" value="&lt;span style=&quot;text-align: left;&quot;&gt;初始化前(@PostConstruct)&amp;nbsp;&lt;/span&gt;" style="rounded=0;whiteSpace=wrap;html=1;" parent="1" vertex="1">
          <mxGeometry x="310" y="120" width="120" height="60" as="geometry" />
        </mxCell>
        <mxCell id="AvaifdtCPCKWoQqbtJCX-19" value="" style="edgeStyle=orthogonalEdgeStyle;rounded=0;orthogonalLoop=1;jettySize=auto;html=1;" parent="1" source="AvaifdtCPCKWoQqbtJCX-11" target="AvaifdtCPCKWoQqbtJCX-18" edge="1">
          <mxGeometry relative="1" as="geometry" />
        </mxCell>
        <mxCell id="sAC0p9OgKvjewPbH0bgV-14" style="edgeStyle=orthogonalEdgeStyle;rounded=0;orthogonalLoop=1;jettySize=auto;html=1;exitX=0.5;exitY=0;exitDx=0;exitDy=0;entryX=0;entryY=0.5;entryDx=0;entryDy=0;" edge="1" parent="1" source="AvaifdtCPCKWoQqbtJCX-11" target="sAC0p9OgKvjewPbH0bgV-12">
          <mxGeometry relative="1" as="geometry" />
        </mxCell>
        <mxCell id="AvaifdtCPCKWoQqbtJCX-11" value="&lt;span style=&quot;text-align: left;&quot;&gt;初始化&lt;br&gt;(Initial izingBean)&lt;/span&gt;" style="rounded=0;whiteSpace=wrap;html=1;" parent="1" vertex="1">
          <mxGeometry x="450" y="120" width="120" height="60" as="geometry" />
        </mxCell>
        <mxCell id="AvaifdtCPCKWoQqbtJCX-21" value="" style="edgeStyle=orthogonalEdgeStyle;rounded=0;orthogonalLoop=1;jettySize=auto;html=1;" parent="1" source="AvaifdtCPCKWoQqbtJCX-18" target="AvaifdtCPCKWoQqbtJCX-20" edge="1">
          <mxGeometry relative="1" as="geometry" />
        </mxCell>
        <mxCell id="AvaifdtCPCKWoQqbtJCX-18" value="&lt;span style=&quot;text-align: left;&quot;&gt;初始化後&lt;br&gt;(AOP)&lt;/span&gt;" style="rounded=0;whiteSpace=wrap;html=1;" parent="1" vertex="1">
          <mxGeometry x="590" y="120" width="120" height="60" as="geometry" />
        </mxCell>
        <mxCell id="AvaifdtCPCKWoQqbtJCX-23" value="" style="edgeStyle=orthogonalEdgeStyle;rounded=0;orthogonalLoop=1;jettySize=auto;html=1;" parent="1" source="AvaifdtCPCKWoQqbtJCX-20" target="AvaifdtCPCKWoQqbtJCX-22" edge="1">
          <mxGeometry relative="1" as="geometry" />
        </mxCell>
        <mxCell id="AvaifdtCPCKWoQqbtJCX-20" value="&lt;span style=&quot;text-align: left;&quot;&gt;代理物件&lt;br&gt;(代理對象)&amp;nbsp;&lt;/span&gt;" style="rounded=0;whiteSpace=wrap;html=1;" parent="1" vertex="1">
          <mxGeometry x="730" y="120" width="120" height="60" as="geometry" />
        </mxCell>
        <mxCell id="sAC0p9OgKvjewPbH0bgV-20" style="edgeStyle=orthogonalEdgeStyle;rounded=0;orthogonalLoop=1;jettySize=auto;html=1;exitX=0.5;exitY=1;exitDx=0;exitDy=0;entryX=0;entryY=0.25;entryDx=0;entryDy=0;" edge="1" parent="1" source="AvaifdtCPCKWoQqbtJCX-22" target="sAC0p9OgKvjewPbH0bgV-19">
          <mxGeometry relative="1" as="geometry" />
        </mxCell>
        <mxCell id="AvaifdtCPCKWoQqbtJCX-22" value="&lt;span style=&quot;text-align: left;&quot;&gt;Beam&lt;/span&gt;" style="rounded=0;whiteSpace=wrap;html=1;" parent="1" vertex="1">
          <mxGeometry x="870" y="120" width="120" height="60" as="geometry" />
        </mxCell>
        <mxCell id="sAC0p9OgKvjewPbH0bgV-1" value="Bean的創造" style="text;html=1;align=center;verticalAlign=middle;resizable=0;points=[];autosize=1;strokeColor=none;fillColor=none;" vertex="1" parent="1">
          <mxGeometry x="-255" y="85" width="90" height="30" as="geometry" />
        </mxCell>
        <mxCell id="sAC0p9OgKvjewPbH0bgV-16" style="edgeStyle=orthogonalEdgeStyle;rounded=0;orthogonalLoop=1;jettySize=auto;html=1;exitX=0.5;exitY=1;exitDx=0;exitDy=0;entryX=0;entryY=0.25;entryDx=0;entryDy=0;" edge="1" parent="1" source="sAC0p9OgKvjewPbH0bgV-2" target="sAC0p9OgKvjewPbH0bgV-15">
          <mxGeometry relative="1" as="geometry" />
        </mxCell>
        <mxCell id="sAC0p9OgKvjewPbH0bgV-2" value="&lt;div style=&quot;text-align: left;&quot;&gt;這就跟new一樣&lt;br&gt;但是new出來無參建構子，&lt;/div&gt;&lt;div style=&quot;text-align: left;&quot;&gt;裡面的orderService就會是null&lt;/div&gt;" style="rounded=0;whiteSpace=wrap;html=1;" vertex="1" parent="1">
          <mxGeometry x="-140" y="260" width="180" height="60" as="geometry" />
        </mxCell>
        <mxCell id="sAC0p9OgKvjewPbH0bgV-7" value="&lt;pre style=&quot;background-color: rgb(43, 43, 43); color: rgb(169, 183, 198); font-family: &amp;quot;JetBrains Mono&amp;quot;, monospace; font-size: 9.8pt;&quot;&gt;&lt;pre style=&quot;font-family: &amp;quot;JetBrains Mono&amp;quot;, monospace; font-size: 9.8pt;&quot;&gt;&lt;span style=&quot;color: rgb(204, 120, 50);&quot;&gt;public class &lt;/span&gt;Test {&lt;/pre&gt;&lt;/pre&gt;&lt;pre style=&quot;background-color:#2b2b2b;color:#a9b7c6;font-family:&#39;JetBrains Mono&#39;,monospace;font-size:9.8pt;&quot;&gt;&lt;span style=&quot;color:#808080;&quot;&gt;//      //@PostConstruct &lt;/span&gt;&lt;span style=&quot;color:#808080;font-family:&#39;Menlo-Regular&#39;,monospace;&quot;&gt;的工作原理&lt;/span&gt;&lt;span style=&quot;color:#808080;&quot;&gt;:&lt;/span&gt;&lt;span style=&quot;color:#808080;font-family:&#39;Menlo-Regular&#39;,monospace;&quot;&gt;在&lt;/span&gt;&lt;span style=&quot;color:#808080;&quot;&gt;userService1&lt;/span&gt;&lt;span style=&quot;color:#808080;font-family:&#39;Menlo-Regular&#39;,monospace;&quot;&gt;中找方法，如果此方法&lt;/span&gt;&lt;span style=&quot;color:#808080;&quot;&gt;Annotation&lt;/span&gt;&lt;span style=&quot;color:#808080;font-family:&#39;Menlo-Regular&#39;,monospace;&quot;&gt;是&lt;/span&gt;&lt;span style=&quot;color:#808080;&quot;&gt;PostConstruct&lt;/span&gt;&lt;span style=&quot;color:#808080;font-family:&#39;Menlo-Regular&#39;,monospace;&quot;&gt;，執行此當前這個對象的方法，然後傳參&lt;br&gt;&lt;/span&gt;&lt;span style=&quot;color:#808080;&quot;&gt;//    for (Method method : userService1.getClass().getDeclaredMethods()) {&lt;br&gt;&lt;/span&gt;&lt;span style=&quot;color:#808080;&quot;&gt;//       if (method.isAnnotationPresent(PostConstruct.class)) {&lt;br&gt;&lt;/span&gt;&lt;span style=&quot;color:#808080;&quot;&gt;//          method.invoke(userService1, null);&lt;br&gt;&lt;/span&gt;&lt;span style=&quot;color:#808080;&quot;&gt;//       }&lt;br&gt;&lt;/span&gt;&lt;span style=&quot;color:#808080;&quot;&gt;//    }&lt;/span&gt;&lt;/pre&gt;&lt;div&gt;&lt;span style=&quot;font-size: 9.8pt;&quot;&gt;&lt;br&gt;&lt;/span&gt;&lt;/div&gt;" style="text;whiteSpace=wrap;html=1;" vertex="1" parent="1">
          <mxGeometry x="390" y="-560" width="560" height="160" as="geometry" />
        </mxCell>
        <mxCell id="sAC0p9OgKvjewPbH0bgV-10" value="&lt;pre style=&quot;background-color:#2b2b2b;color:#a9b7c6;font-family:&#39;JetBrains Mono&#39;,monospace;font-size:9.8pt;&quot;&gt;&lt;pre style=&quot;font-family: &amp;quot;JetBrains Mono&amp;quot;, monospace; font-size: 9.8pt;&quot;&gt;&lt;span style=&quot;color:#cc7832;&quot;&gt;public class &lt;/span&gt;Test {&lt;/pre&gt;&lt;/pre&gt;&lt;pre style=&quot;background-color:#2b2b2b;color:#a9b7c6;font-family:&#39;JetBrains Mono&#39;,monospace;font-size:9.8pt;&quot;&gt;&lt;span style=&quot;color:#808080;&quot;&gt;//     UserService userService1 = new UserService();&lt;br&gt;&lt;/span&gt;&lt;span style=&quot;color:#808080;&quot;&gt;//     //@Autowired &lt;/span&gt;&lt;span style=&quot;color:#808080;font-family:&#39;Menlo-Regular&#39;,monospace;&quot;&gt;的工作原理&lt;/span&gt;&lt;span style=&quot;color:#808080;&quot;&gt;:&lt;/span&gt;&lt;span style=&quot;color:#808080;font-family:&#39;Menlo-Regular&#39;,monospace;&quot;&gt;用&lt;/span&gt;&lt;span style=&quot;color:#808080;&quot;&gt;getDeclaredFields&lt;/span&gt;&lt;span style=&quot;color:#808080;font-family:&#39;Menlo-Regular&#39;,monospace;&quot;&gt;取&lt;/span&gt;&lt;span style=&quot;color:#808080;&quot;&gt;userService1&lt;/span&gt;&lt;span style=&quot;color:#808080;font-family:&#39;Menlo-Regular&#39;,monospace;&quot;&gt;當前屬性&lt;/span&gt;&lt;span style=&quot;color:#808080;&quot;&gt;(&lt;/span&gt;&lt;span style=&quot;color:#808080;font-family:&#39;Menlo-Regular&#39;,monospace;&quot;&gt;含&lt;/span&gt;&lt;span style=&quot;color:#808080;&quot;&gt;private)&lt;/span&gt;&lt;span style=&quot;color:#808080;font-family:&#39;Menlo-Regular&#39;,monospace;&quot;&gt;，然後再看他是不是&lt;/span&gt;&lt;span style=&quot;color:#808080;&quot;&gt;Autowired&lt;/span&gt;&lt;span style=&quot;color:#808080;font-family:&#39;Menlo-Regular&#39;,monospace;&quot;&gt;，對此屬性賦值&lt;br&gt;&lt;/span&gt;&lt;span style=&quot;color:#808080;&quot;&gt;//    for (Field field : userService1.getClass().getDeclaredFields()) {&lt;br&gt;&lt;/span&gt;&lt;span style=&quot;color:#808080;&quot;&gt;//       if (field.isAnnotationPresent(Autowired.class)) {&lt;br&gt;&lt;/span&gt;&lt;span style=&quot;color:#808080;&quot;&gt;//          field.set(userService1, ??);&lt;br&gt;&lt;/span&gt;&lt;span style=&quot;color:#808080;&quot;&gt;//       }&lt;br&gt;&lt;/span&gt;&lt;span style=&quot;color:#808080;&quot;&gt;//    }&lt;/span&gt;&lt;/pre&gt;" style="text;whiteSpace=wrap;html=1;" vertex="1" parent="1">
          <mxGeometry x="260" y="-720" width="560" height="160" as="geometry" />
        </mxCell>
        <mxCell id="sAC0p9OgKvjewPbH0bgV-12" value="&lt;pre style=&quot;background-color: rgb(43, 43, 43); color: rgb(169, 183, 198); font-family: &amp;quot;JetBrains Mono&amp;quot;, monospace; font-size: 9.8pt;&quot;&gt;&lt;pre style=&quot;font-family: &amp;quot;JetBrains Mono&amp;quot;, monospace; font-size: 9.8pt;&quot;&gt;&lt;span style=&quot;color: rgb(204, 120, 50);&quot;&gt;public class &lt;/span&gt;Test {&lt;/pre&gt;&lt;/pre&gt;&lt;pre style=&quot;background-color:#2b2b2b;color:#a9b7c6;font-family:&#39;JetBrains Mono&#39;,monospace;font-size:9.8pt;&quot;&gt;&lt;span style=&quot;color:#808080;&quot;&gt;//      //class implement InitializingBean &lt;/span&gt;&lt;span style=&quot;color:#808080;font-family:&#39;Menlo-Regular&#39;,monospace;&quot;&gt;的工作原理&lt;/span&gt;&lt;span style=&quot;color:#808080;&quot;&gt;:&lt;/span&gt;&lt;span style=&quot;color:#808080;font-family:&#39;Menlo-Regular&#39;,monospace;&quot;&gt;判斷&lt;/span&gt;&lt;span style=&quot;color:#808080;&quot;&gt;userService1&lt;/span&gt;&lt;span style=&quot;color:#808080;font-family:&#39;Menlo-Regular&#39;,monospace;&quot;&gt;是實作&lt;/span&gt;&lt;span style=&quot;color:#808080;&quot;&gt;InitializingBean&lt;/span&gt;&lt;span style=&quot;color:#808080;font-family:&#39;Menlo-Regular&#39;,monospace;&quot;&gt;，然後強轉成&lt;/span&gt;&lt;span style=&quot;color:#808080;&quot;&gt;InitializingBean&lt;/span&gt;&lt;span style=&quot;color:#808080;font-family:&#39;Menlo-Regular&#39;,monospace;&quot;&gt;，並且調用&lt;/span&gt;&lt;span style=&quot;color:#808080;&quot;&gt;afterPropertiesSet()&lt;br&gt;&lt;/span&gt;&lt;span style=&quot;color:#808080;&quot;&gt;//    if (userService1 instanceof InitializingBean) {&lt;br&gt;&lt;/span&gt;&lt;span style=&quot;color:#808080;&quot;&gt;//       try {&lt;br&gt;&lt;/span&gt;&lt;span style=&quot;color:#808080;&quot;&gt;//          ((InitializingBean)userService1).afterPropertiesSet();&lt;br&gt;&lt;/span&gt;&lt;span style=&quot;color:#808080;&quot;&gt;//       } catch (Exception e) {&lt;br&gt;&lt;/span&gt;&lt;span style=&quot;color:#808080;&quot;&gt;//          e.printStackTrace();&lt;br&gt;&lt;/span&gt;&lt;span style=&quot;color:#808080;&quot;&gt;//       }&lt;br&gt;&lt;/span&gt;&lt;span style=&quot;color:#808080;&quot;&gt;//    }&lt;br&gt;&lt;/span&gt;&lt;span style=&quot;color:#808080;&quot;&gt;//&lt;/span&gt;&lt;/pre&gt;" style="text;whiteSpace=wrap;html=1;" vertex="1" parent="1">
          <mxGeometry x="530" y="-280" width="560" height="190" as="geometry" />
        </mxCell>
        <mxCell id="sAC0p9OgKvjewPbH0bgV-13" value="&lt;pre style=&quot;background-color:#2b2b2b;color:#a9b7c6;font-family:&#39;JetBrains Mono&#39;,monospace;font-size:9.8pt;&quot;&gt;&lt;span style=&quot;color:#cc7832;&quot;&gt;public class &lt;/span&gt;UserService {&lt;br&gt;&lt;pre style=&quot;font-family: &amp;quot;JetBrains Mono&amp;quot;, monospace; font-size: 9.8pt;&quot;&gt;&lt;span style=&quot;color:#808080;&quot;&gt;//public class UserService implements InitializingBean {&lt;br&gt;&lt;/span&gt;&lt;/pre&gt;&lt;pre style=&quot;font-family: &amp;quot;JetBrains Mono&amp;quot;, monospace; font-size: 9.8pt;&quot;&gt;&lt;span style=&quot;color:#629755;font-style:italic;&quot;&gt;/****&lt;br&gt;&lt;/span&gt;&lt;span style=&quot;color:#629755;font-style:italic;&quot;&gt;    * &lt;/span&gt;&lt;span style=&quot;color:#629755;font-style:italic;font-family:&#39;Menlo-Regular&#39;,monospace;&quot;&gt;因&lt;/span&gt;&lt;span style=&quot;color:#629755;font-style:italic;&quot;&gt;implements  InitializingBean &lt;/span&gt;&lt;span style=&quot;color:#629755;font-style:italic;font-family:&#39;Menlo-Regular&#39;,monospace;&quot;&gt;所以要&lt;/span&gt;&lt;span style=&quot;color:#629755;font-style:italic;&quot;&gt;override afterPropertiesSet()&lt;/span&gt;&lt;span style=&quot;color:#629755;font-style:italic;font-family:&#39;Menlo-Regular&#39;,monospace;&quot;&gt;來調用&lt;/span&gt;&lt;span style=&quot;color:#629755;font-style:italic;&quot;&gt;a()&lt;br&gt;&lt;/span&gt;&lt;span style=&quot;color:#629755;font-style:italic;&quot;&gt;    * &lt;/span&gt;&lt;span style=&quot;color:#629755;font-weight:bold;font-style:italic;&quot;&gt;@throws &lt;/span&gt;&lt;span style=&quot;color:#629755;font-style:italic;&quot;&gt;Exception&lt;br&gt;&lt;/span&gt;&lt;span style=&quot;color:#629755;font-style:italic;&quot;&gt;    */&lt;br&gt;&lt;/span&gt;&lt;span style=&quot;color:#808080;&quot;&gt;// @Override&lt;br&gt;&lt;/span&gt;&lt;span style=&quot;color:#808080;&quot;&gt;// public void afterPropertiesSet() throws Exception {&lt;br&gt;&lt;/span&gt;&lt;span style=&quot;color:#808080;&quot;&gt;////      mysql ---&amp;gt; User&lt;/span&gt;&lt;span style=&quot;color:#808080;font-family:&#39;Menlo-Regular&#39;,monospace;&quot;&gt;對象&lt;/span&gt;&lt;span style=&quot;color:#808080;&quot;&gt; ---&amp;gt;admin&lt;br&gt;&lt;/span&gt;&lt;span style=&quot;color:#808080;&quot;&gt;// }&lt;/span&gt;&lt;/pre&gt;&lt;/pre&gt;" style="text;whiteSpace=wrap;html=1;" vertex="1" parent="1">
          <mxGeometry x="530" y="-100" width="620" height="210" as="geometry" />
        </mxCell>
        <mxCell id="sAC0p9OgKvjewPbH0bgV-15" value="&lt;pre style=&quot;background-color:#2b2b2b;color:#a9b7c6;font-family:&#39;JetBrains Mono&#39;,monospace;font-size:9.8pt;&quot;&gt;&lt;span style=&quot;color:#629755;font-style:italic;&quot;&gt;/***&lt;br&gt;&lt;/span&gt;&lt;span style=&quot;color:#629755;font-style:italic;&quot;&gt; * &lt;/span&gt;&lt;span style=&quot;color:#629755;font-style:italic;font-family:&#39;Menlo-Regular&#39;,monospace;&quot;&gt;建構子&lt;/span&gt;&lt;span style=&quot;color:#629755;font-style:italic;&quot;&gt;:&lt;br&gt;&lt;/span&gt;&lt;span style=&quot;color:#629755;font-style:italic;&quot;&gt; * &lt;/span&gt;&lt;span style=&quot;color:#629755;font-style:italic;font-family:&#39;Menlo-Regular&#39;,monospace;&quot;&gt;有無參、有有參&lt;/span&gt;&lt;span style=&quot;color:#629755;font-style:italic;&quot;&gt;:&lt;/span&gt;&lt;span style=&quot;color:#629755;font-style:italic;font-family:&#39;Menlo-Regular&#39;,monospace;&quot;&gt;執行無參，忽略有參&lt;br&gt;&lt;/span&gt;&lt;span style=&quot;color:#629755;font-style:italic;font-family:&#39;Menlo-Regular&#39;,monospace;&quot;&gt; &lt;/span&gt;&lt;span style=&quot;color:#629755;font-style:italic;&quot;&gt;* &lt;/span&gt;&lt;span style=&quot;color:#629755;font-style:italic;font-family:&#39;Menlo-Regular&#39;,monospace;&quot;&gt;有無參、沒有參&lt;/span&gt;&lt;span style=&quot;color:#629755;font-style:italic;&quot;&gt;:&lt;/span&gt;&lt;span style=&quot;color:#629755;font-style:italic;font-family:&#39;Menlo-Regular&#39;,monospace;&quot;&gt;執行無參&lt;br&gt;&lt;/span&gt;&lt;span style=&quot;color:#629755;font-style:italic;font-family:&#39;Menlo-Regular&#39;,monospace;&quot;&gt; &lt;/span&gt;&lt;span style=&quot;color:#629755;font-style:italic;&quot;&gt;* &lt;/span&gt;&lt;span style=&quot;color:#629755;font-style:italic;font-family:&#39;Menlo-Regular&#39;,monospace;&quot;&gt;沒無參、沒有參&lt;/span&gt;&lt;span style=&quot;color:#629755;font-style:italic;&quot;&gt;:Spring Default&lt;/span&gt;&lt;span style=&quot;color:#629755;font-style:italic;font-family:&#39;Menlo-Regular&#39;,monospace;&quot;&gt;會自己創一個在容器內。&lt;br&gt;&lt;/span&gt;&lt;span style=&quot;color:#629755;font-style:italic;font-family:&#39;Menlo-Regular&#39;,monospace;&quot;&gt; &lt;/span&gt;&lt;span style=&quot;color:#629755;font-style:italic;&quot;&gt;* &lt;/span&gt;&lt;span style=&quot;color:#629755;font-style:italic;font-family:&#39;Menlo-Regular&#39;,monospace;&quot;&gt;沒無參、有有參&lt;/span&gt;&lt;span style=&quot;color:#629755;font-style:italic;&quot;&gt;:&lt;/span&gt;&lt;span style=&quot;color:#629755;font-style:italic;font-family:&#39;Menlo-Regular&#39;,monospace;&quot;&gt;此時你只能夠有一個有參，不然&lt;/span&gt;&lt;span style=&quot;color:#629755;font-style:italic;&quot;&gt;Spring&lt;/span&gt;&lt;span style=&quot;color:#629755;font-style:italic;font-family:&#39;Menlo-Regular&#39;,monospace;&quot;&gt;會不知道要執行哪個有參。&lt;br&gt;&lt;/span&gt;&lt;span style=&quot;color:#629755;font-style:italic;font-family:&#39;Menlo-Regular&#39;,monospace;&quot;&gt; &lt;/span&gt;&lt;span style=&quot;color:#629755;font-style:italic;&quot;&gt;* &lt;/span&gt;&lt;span style=&quot;color:#629755;font-style:italic;font-family:&#39;Menlo-Regular&#39;,monospace;&quot;&gt;如果依定要寫出多個建構子，那可以使用&lt;/span&gt;&lt;span style=&quot;color:#629755;font-style:italic;&quot;&gt;@Autowired&lt;/span&gt;&lt;span style=&quot;color:#629755;font-style:italic;font-family:&#39;Menlo-Regular&#39;,monospace;&quot;&gt;來指定要用哪一個建構子&lt;br&gt;&lt;/span&gt;&lt;span style=&quot;color:#629755;font-style:italic;font-family:&#39;Menlo-Regular&#39;,monospace;&quot;&gt; &lt;/span&gt;&lt;span style=&quot;color:#629755;font-style:italic;&quot;&gt;*/&lt;/span&gt;&lt;/pre&gt;" style="text;whiteSpace=wrap;html=1;" vertex="1" parent="1">
          <mxGeometry x="-20" y="430" width="560" height="180" as="geometry" />
        </mxCell>
        <mxCell id="sAC0p9OgKvjewPbH0bgV-18" value="&lt;pre style=&quot;background-color:#2b2b2b;color:#a9b7c6;font-family:&#39;JetBrains Mono&#39;,monospace;font-size:9.8pt;&quot;&gt;    &lt;span style=&quot;color:#629755;font-style:italic;&quot;&gt;/***&lt;br&gt;&lt;/span&gt;&lt;span style=&quot;color:#629755;font-style:italic;&quot;&gt;    * &lt;/span&gt;&lt;span style=&quot;color:#629755;font-weight:bold;font-style:italic;&quot;&gt;@PostConstruct:&lt;br&gt;&lt;/span&gt;&lt;span style=&quot;color:#629755;font-weight:bold;font-style:italic;&quot;&gt;    &lt;/span&gt;&lt;span style=&quot;color:#629755;font-style:italic;&quot;&gt;* &lt;/span&gt;&lt;span style=&quot;color:#629755;font-style:italic;font-family:&#39;Menlo-Regular&#39;,monospace;&quot;&gt;告訴&lt;/span&gt;&lt;span style=&quot;color:#629755;font-style:italic;&quot;&gt;Spring &lt;/span&gt;&lt;span style=&quot;color:#629755;font-style:italic;font-family:&#39;Menlo-Regular&#39;,monospace;&quot;&gt;初始化前來掉用這個方法&lt;br&gt;&lt;/span&gt;&lt;span style=&quot;color:#629755;font-style:italic;font-family:&#39;Menlo-Regular&#39;,monospace;&quot;&gt;    &lt;/span&gt;&lt;span style=&quot;color:#629755;font-style:italic;&quot;&gt;* &lt;/span&gt;&lt;span style=&quot;color:#629755;font-style:italic;font-family:&#39;Menlo-Regular&#39;,monospace;&quot;&gt;除&lt;/span&gt;&lt;span style=&quot;color:#629755;font-style:italic;&quot;&gt;@PostConstruct&lt;/span&gt;&lt;span style=&quot;color:#629755;font-style:italic;font-family:&#39;Menlo-Regular&#39;,monospace;&quot;&gt;以外也可以使用&lt;/span&gt;&lt;span style=&quot;color:#629755;font-style:italic;&quot;&gt;implements  InitializingBean&lt;/span&gt;&lt;span style=&quot;color:#629755;font-style:italic;font-family:&#39;Menlo-Regular&#39;,monospace;&quot;&gt;來達到初始化&lt;/span&gt;&lt;span style=&quot;color:#629755;font-style:italic;&quot;&gt;Bean&lt;/span&gt;&lt;span style=&quot;color:#629755;font-style:italic;font-family:&#39;Menlo-Regular&#39;,monospace;&quot;&gt;的時候調用&lt;/span&gt;&lt;span style=&quot;color:#629755;font-style:italic;&quot;&gt;a()&lt;br&gt;&lt;/span&gt;&lt;span style=&quot;color:#629755;font-style:italic;&quot;&gt;    */&lt;br&gt;&lt;/span&gt;&lt;span style=&quot;color:#808080;&quot;&gt;// @PostConstruct&lt;br&gt;&lt;/span&gt;&lt;span style=&quot;color:#808080;&quot;&gt;// public void a() {&lt;br&gt;&lt;/span&gt;&lt;span style=&quot;color:#808080;&quot;&gt;////      mysql ---&amp;gt; User&lt;/span&gt;&lt;span style=&quot;color:#808080;font-family:&#39;Menlo-Regular&#39;,monospace;&quot;&gt;對象&lt;/span&gt;&lt;span style=&quot;color:#808080;&quot;&gt; ---&amp;gt;admin&lt;br&gt;&lt;/span&gt;&lt;span style=&quot;color:#808080;&quot;&gt;// }&lt;/span&gt;&lt;/pre&gt;" style="text;whiteSpace=wrap;html=1;" vertex="1" parent="1">
          <mxGeometry x="390" y="-430" width="560" height="190" as="geometry" />
        </mxCell>
        <mxCell id="sAC0p9OgKvjewPbH0bgV-19" value="&lt;pre style=&quot;background-color:#2b2b2b;color:#a9b7c6;font-family:&#39;JetBrains Mono&#39;,monospace;font-size:9.8pt;&quot;&gt;&lt;pre style=&quot;font-family: &amp;quot;JetBrains Mono&amp;quot;, monospace; font-size: 9.8pt;&quot;&gt;    &lt;span style=&quot;color:#629755;font-style:italic;&quot;&gt;/**&lt;br&gt;&lt;/span&gt;&lt;span style=&quot;color:#629755;font-style:italic;&quot;&gt;    * (OrderService orderService6) OrderService:className(type)&lt;/span&gt;&lt;span style=&quot;color:#629755;font-style:italic;font-family:&#39;Menlo-Regular&#39;,monospace;&quot;&gt;、&lt;/span&gt;&lt;span style=&quot;color:#629755;font-style:italic;&quot;&gt;orderService6:beanName(name)&lt;br&gt;&lt;/span&gt;&lt;span style=&quot;color:#629755;font-style:italic;&quot;&gt;    * Spring&lt;/span&gt;&lt;span style=&quot;color:#629755;font-style:italic;font-family:&#39;Menlo-Regular&#39;,monospace;&quot;&gt;內的&lt;/span&gt;&lt;span style=&quot;color:#629755;font-style:italic;&quot;&gt;Bean&lt;/span&gt;&lt;span style=&quot;color:#629755;font-style:italic;font-family:&#39;Menlo-Regular&#39;,monospace;&quot;&gt;找尋原理&lt;/span&gt;&lt;span style=&quot;color:#629755;font-style:italic;&quot;&gt;:&lt;/span&gt;&lt;span style=&quot;color:#629755;font-style:italic;font-family:&#39;Menlo-Regular&#39;,monospace;&quot;&gt;多筆&lt;/span&gt;&lt;span style=&quot;color:#629755;font-style:italic;&quot;&gt;bean&lt;/span&gt;&lt;span style=&quot;color:#629755;font-style:italic;font-family:&#39;Menlo-Regular&#39;,monospace;&quot;&gt;儲存方式&lt;/span&gt;&lt;span style=&quot;color:#629755;font-style:italic;&quot;&gt;Map&lt;/span&gt;&lt;span style=&quot;color:#77b767;font-style:italic;&quot;&gt;&amp;lt;beanName&lt;/span&gt;&lt;span style=&quot;color:#629755;font-style:italic;&quot;&gt;, bean&amp;gt;&lt;br&gt;&lt;/span&gt;&lt;span style=&quot;color:#629755;font-style:italic;&quot;&gt;    *     &lt;/span&gt;&lt;span style=&quot;color:#629755;font-style:italic;font-family:&#39;Menlo-Regular&#39;,monospace;&quot;&gt;首先先會用&lt;/span&gt;&lt;span style=&quot;color:#629755;font-style:italic;&quot;&gt;className(type)&lt;/span&gt;&lt;span style=&quot;color:#629755;font-style:italic;font-family:&#39;Menlo-Regular&#39;,monospace;&quot;&gt;去找，找到多筆後&lt;/span&gt;&lt;span style=&quot;color:#629755;font-style:italic;&quot;&gt;beanName(name)&lt;/span&gt;&lt;span style=&quot;color:#629755;font-style:italic;font-family:&#39;Menlo-Regular&#39;,monospace;&quot;&gt;去找，所以傳入參數的值要特別注意&lt;/span&gt;&lt;span style=&quot;color:#629755;font-style:italic;&quot;&gt;!!!&lt;br&gt;&lt;/span&gt;&lt;span style=&quot;color:#629755;font-style:italic;&quot;&gt;    * &lt;/span&gt;&lt;span style=&quot;color:#629755;font-style:italic;font-family:&#39;Menlo-Regular&#39;,monospace;&quot;&gt;如果只有一個，&lt;/span&gt;&lt;span style=&quot;color:#629755;font-style:italic;&quot;&gt;Bean Name&lt;/span&gt;&lt;span style=&quot;color:#629755;font-style:italic;font-family:&#39;Menlo-Regular&#39;,monospace;&quot;&gt;隨便寫都&lt;/span&gt;&lt;span style=&quot;color:#629755;font-style:italic;&quot;&gt;OK&lt;/span&gt;&lt;span style=&quot;color:#629755;font-style:italic;font-family:&#39;Menlo-Regular&#39;,monospace;&quot;&gt;。如果有多個，一定要在要被定義成&lt;/span&gt;&lt;span style=&quot;color:#629755;font-style:italic;&quot;&gt;Bean Name&lt;br&gt;&lt;/span&gt;&lt;span style=&quot;color:#629755;font-style:italic;&quot;&gt;    */&lt;br&gt;&lt;/span&gt;&lt;span style=&quot;color:#808080;&quot;&gt;// public UserService(OrderService orderService6) {&lt;br&gt;&lt;/span&gt;&lt;span style=&quot;color:#808080;&quot;&gt;//    this.orderService = orderService;&lt;br&gt;&lt;/span&gt;&lt;span style=&quot;color:#808080;&quot;&gt;//    System.out.println(&quot;2&quot;);&lt;br&gt;&lt;/span&gt;&lt;span style=&quot;color:#808080;&quot;&gt;// }&lt;/span&gt;&lt;/pre&gt;&lt;/pre&gt;" style="text;whiteSpace=wrap;html=1;" vertex="1" parent="1">
          <mxGeometry x="720" y="360" width="560" height="160" as="geometry" />
        </mxCell>
      </root>
    </mxGraphModel>
  </diagram>
</mxfile>
